# xmcd
#
# Track frame offsets: 
#        150
#        14837
#        25835
#        38512
#        50066
#        62204
#        74622
#        90855
#        103728
#        112696
#        123039
#        134359
#        145766
#        157246
#        167661
#        181206
#        195069
#        206405
#        221518
#        233756
#
# Disc length: 3265 seconds
#
# Revision: 1
# Processed by: cddbd v1.5.2PL0 Copyright (c) Steve Scherf et al.
# Submitted via: ExactAudioCopyFreeDBPlugin 1.0
#
DISCID=0e0cbf14
DTITLE=B.B. King - ABC Of The Blues - Vol. 21 B.B.King
DYEAR=2010
DGENRE=Blues
TTITLE0=B.B. Boogie
TTITLE1=When Your Baby Packs Up And Goes
TTITLE2=Got The Blues
TTITLE3=Take A Swing With Me
TTITLE4=Miss Martha King
TTITLE5=Mistreated Woman
TTITLE6=The Other Night Blues
TTITLE7=Walkin' And Cryin'
TTITLE8=My Baby Is Gone
TTITLE9=Fine Looking Woman
TTITLE10=She's Dynamite
TTITLE11=She's A Mean Woman
TTITLE12=Hard Working Woman
TTITLE13=That Ain't The Way To Do It
TTITLE14=Three O'Clock Blues
TTITLE15=She Don't Move Me No More
TTITLE16=Shake It Up And Go
TTITLE17=My Own Fault Darlin'
TTITLE18=Gotta Find My Baby
TTITLE19=B.B. Blues
EXTD=
EXTT0=
EXTT1=
EXTT2=
EXTT3=
EXTT4=
EXTT5=
EXTT6=
EXTT7=
EXTT8=
EXTT9=
EXTT10=
EXTT11=
EXTT12=
EXTT13=
EXTT14=
EXTT15=
EXTT16=
EXTT17=
EXTT18=
EXTT19=
PLAYORDER=
